<?xml version="1.0" encoding="utf-8"?>
<!-- Generator: Adobe Illustrator 23.0.6, SVG Export Plug-In . SVG Version: 6.00 Build 0)  -->
<svg version="1.1" id="Layer_1" xmlns="http://www.w3.org/2000/svg" xmlns:xlink="http://www.w3.org/1999/xlink" x="0px" y="0px"
	 viewBox="0 0 28.53 62.83" style="enable-background:new 0 0 28.53 62.83;" xml:space="preserve">
<style type="text/css">
	.st0{fill:#FC5C9C;}
	.st1{fill:#FFFFFF;}
	.st2{fill:#CACCD9;}
</style>
<g>
	<g>
		<path class="st0" d="M14.32,17.5c0,0-0.25-0.16-0.76-0.49c-0.51-0.33-0.96-0.72-1.35-1.16c-0.39-0.44-0.73-0.95-1.01-1.51
			l1.83-1.05c0.29,0.68,0.67,1.25,1.15,1.7c0.48,0.45,1.04,0.79,1.71,1.01c0.91,0.31,1.65,0.37,2.22,0.19
			c0.56-0.18,0.96-0.61,1.19-1.29l0-0.01c0.15-0.43,0.15-0.81,0.02-1.14c-0.13-0.33-0.35-0.61-0.66-0.86
			c-0.31-0.24-0.71-0.5-1.22-0.78c-0.02-0.01-0.03-0.02-0.05-0.03c-0.02,0-0.03-0.01-0.05-0.03c-0.03-0.02-0.06-0.03-0.09-0.05
			c-0.03-0.02-0.07-0.04-0.1-0.05c-0.81-0.44-1.46-0.84-1.93-1.21c-0.47-0.37-0.81-0.86-1.03-1.48C13.95,8.64,14,7.88,14.3,6.97
			l0-0.01c0.3-0.88,0.71-1.55,1.25-2.02c0.54-0.46,1.19-0.73,1.97-0.79c0.78-0.06,1.68,0.08,2.7,0.42c0.45,0.15,0.88,0.35,1.29,0.58
			C21.94,5.4,22.33,5.68,22.7,6c0.37,0.32,0.73,0.69,1.06,1.1l-1.7,1.13c-0.38-0.46-0.77-0.84-1.17-1.14
			c-0.4-0.3-0.83-0.53-1.27-0.68c-0.85-0.29-1.54-0.34-2.08-0.15C17,6.43,16.62,6.85,16.4,7.51l0,0.01
			c-0.15,0.45-0.15,0.85,0.01,1.18c0.16,0.34,0.4,0.63,0.73,0.88c0.33,0.24,0.79,0.54,1.39,0.89c0.02,0.01,0.05,0.03,0.07,0.04
			c0.02,0.02,0.05,0.03,0.08,0.05s0.06,0.03,0.09,0.05c0.03,0.02,0.06,0.03,0.08,0.05c0.71,0.41,1.28,0.82,1.72,1.22
			s0.74,0.9,0.91,1.52c0.17,0.61,0.12,1.35-0.17,2.21l-0.01,0.02c-0.29,0.85-0.7,1.49-1.24,1.94c-0.54,0.44-1.22,0.69-2.02,0.73
			c-0.8,0.04-1.73-0.12-2.79-0.48C14.63,17.6,14.32,17.5,14.32,17.5z M14.69,16.83l1.97,0.66l-0.73,2.17l-1.97-0.66L14.69,16.83z
			 M19.46,2.69l1.97,0.66l-0.69,2.06l-1.97-0.66L19.46,2.69z"/>
	</g>
</g>
<g>
	<g>
		<path class="st1" d="M15.71,55.52c0,0-0.22-0.18-0.66-0.54c-0.44-0.36-0.82-0.77-1.13-1.23c-0.32-0.46-0.58-0.97-0.78-1.54
			l1.82-0.87c0.19,0.68,0.49,1.25,0.88,1.73c0.39,0.47,0.89,0.84,1.48,1.11c0.82,0.37,1.5,0.49,2.05,0.36
			c0.55-0.13,0.96-0.51,1.25-1.15l0-0.01c0.18-0.41,0.23-0.77,0.14-1.1c-0.09-0.33-0.26-0.62-0.52-0.88
			c-0.26-0.26-0.61-0.54-1.05-0.85c-0.01-0.01-0.03-0.02-0.04-0.03c-0.01-0.01-0.03-0.02-0.04-0.03c-0.03-0.02-0.05-0.04-0.08-0.06
			c-0.03-0.02-0.06-0.04-0.08-0.06c-0.71-0.49-1.26-0.93-1.66-1.32c-0.4-0.39-0.67-0.89-0.8-1.51c-0.13-0.62-0.01-1.34,0.38-2.19
			l0-0.01c0.37-0.82,0.84-1.44,1.39-1.84c0.55-0.4,1.19-0.61,1.93-0.6c0.73,0,1.56,0.21,2.47,0.63c0.4,0.18,0.78,0.4,1.14,0.67
			c0.36,0.26,0.69,0.56,1,0.9c0.31,0.34,0.6,0.72,0.87,1.14l-1.71,0.95c-0.3-0.47-0.62-0.87-0.96-1.2
			c-0.34-0.32-0.71-0.57-1.11-0.75c-0.76-0.34-1.4-0.45-1.92-0.32c-0.52,0.13-0.92,0.51-1.2,1.12l0,0.01
			c-0.19,0.42-0.23,0.8-0.12,1.14c0.11,0.34,0.31,0.64,0.59,0.9c0.28,0.26,0.68,0.59,1.2,0.97c0.02,0.02,0.04,0.03,0.06,0.05
			c0.02,0.02,0.04,0.03,0.07,0.05c0.03,0.02,0.05,0.04,0.07,0.05c0.02,0.02,0.05,0.04,0.08,0.05c0.61,0.46,1.1,0.89,1.47,1.31
			c0.36,0.42,0.59,0.93,0.68,1.54c0.09,0.61-0.04,1.31-0.41,2.12l-0.01,0.02c-0.36,0.79-0.82,1.38-1.37,1.77
			c-0.56,0.38-1.21,0.56-1.96,0.54c-0.75-0.02-1.6-0.25-2.55-0.68C15.99,55.65,15.71,55.52,15.71,55.52z M16.13,54.91l1.77,0.8
			l-0.92,2.04l-1.77-0.8L16.13,54.91z M22.13,41.67l1.77,0.8l-0.87,1.93l-1.77-0.8L22.13,41.67z"/>
	</g>
</g>
<g>
	<g>
		<path class="st2" d="M3.53,25.23l1.07-1.61l1.76,1.17L5.29,26.4L3.53,25.23z M16.17,33.8c0,0-0.21,0.19-0.64,0.56
			c-0.42,0.38-0.89,0.68-1.39,0.92c-0.5,0.24-1.05,0.41-1.65,0.52l-0.56-1.94c0.7-0.08,1.32-0.28,1.85-0.59
			c0.53-0.31,0.98-0.74,1.34-1.28c0.5-0.75,0.73-1.4,0.69-1.96c-0.04-0.56-0.35-1.03-0.93-1.42l-0.01-0.01
			c-0.37-0.25-0.72-0.35-1.06-0.32c-0.33,0.04-0.65,0.16-0.95,0.37c-0.3,0.21-0.63,0.51-1.01,0.9c-0.02,0.01-0.03,0.02-0.04,0.04
			c-0.01,0.01-0.02,0.03-0.04,0.04c-0.02,0.02-0.05,0.05-0.07,0.07c-0.03,0.03-0.05,0.05-0.07,0.07c-0.6,0.62-1.13,1.1-1.58,1.43
			c-0.45,0.33-0.99,0.51-1.62,0.54c-0.63,0.03-1.33-0.21-2.1-0.72l-0.01-0.01c-0.75-0.5-1.28-1.06-1.59-1.67
			c-0.31-0.61-0.41-1.28-0.29-2c0.12-0.72,0.46-1.5,1.02-2.34c0.25-0.37,0.53-0.71,0.84-1.02c0.32-0.31,0.67-0.59,1.05-0.84
			c0.39-0.25,0.81-0.48,1.27-0.67l0.66,1.84c-0.52,0.22-0.96,0.47-1.34,0.76c-0.37,0.29-0.68,0.61-0.92,0.98
			c-0.46,0.7-0.67,1.31-0.62,1.85c0.05,0.53,0.35,0.99,0.91,1.36l0.01,0.01c0.38,0.26,0.75,0.36,1.11,0.3s0.68-0.2,0.99-0.43
			c0.31-0.23,0.69-0.58,1.15-1.03c0.02-0.02,0.04-0.04,0.06-0.05c0.02-0.02,0.04-0.04,0.06-0.06c0.02-0.02,0.04-0.04,0.07-0.06
			s0.04-0.04,0.06-0.06c0.55-0.53,1.06-0.94,1.53-1.23c0.47-0.29,1.01-0.43,1.63-0.43c0.61,0.01,1.29,0.25,2.02,0.74l0.02,0.01
			c0.73,0.48,1.23,1.03,1.52,1.64c0.29,0.61,0.36,1.28,0.22,2.02c-0.15,0.74-0.51,1.54-1.09,2.41C16.34,33.54,16.17,33.8,16.17,33.8
			z M15.63,33.28l1.07-1.61l1.86,1.24l-1.07,1.61L15.63,33.28z"/>
	</g>
</g>
</svg>
